<?xml version="1.0" encoding="iso-8859-1"?>
<!-- Generator: Adobe Illustrator 17.1.0, SVG Export Plug-In . SVG Version: 6.00 Build 0)  -->
<!DOCTYPE svg PUBLIC "-//W3C//DTD SVG 1.1//EN" "http://www.w3.org/Graphics/SVG/1.1/DTD/svg11.dtd">
<svg version="1.1" id="Capa_1" xmlns="http://www.w3.org/2000/svg" xmlns:xlink="http://www.w3.org/1999/xlink" x="0px" y="0px"
	 viewBox="0 0 199.333 199.333" style="enable-background:new 0 0 199.333 199.333;" xml:space="preserve">
<path d="M145.833,168.417H53.5c-1.104,0-2-0.896-2-2s0.896-2,2-2h15.446l3.979-15.583H7.083c-3.906,0-7.083-3.178-7.083-7.083V38
	c0-3.906,3.178-7.083,7.083-7.083H192.25c3.906,0,7.083,3.177,7.083,7.083v103.75c0,3.906-3.178,7.083-7.083,7.083h-65.842
	l3.979,15.583h15.446c1.104,0,2,0.896,2,2S146.938,168.417,145.833,168.417z M73.075,164.417h53.184l-3.979-15.583H77.054
	L73.075,164.417z M123.833,144.833h68.417c1.7,0,3.083-1.383,3.083-3.083V38c0-1.7-1.383-3.083-3.083-3.083H7.083
	C5.383,34.917,4,36.3,4,38v103.75c0,1.7,1.383,3.083,3.083,3.083H123.833z M187.75,137.969H11.583c-1.104,0-2-0.896-2-2V42.583
	c0-1.104,0.896-2,2-2H187.75c1.104,0,2,0.896,2,2v93.385C189.75,137.073,188.854,137.969,187.75,137.969z M13.583,133.969H185.75
	V44.583H13.583V133.969z M142.583,126.583c-0.512,0-1.024-0.195-1.414-0.586c-0.781-0.781-0.781-2.047,0-2.828l35-35
	c0.78-0.781,2.048-0.781,2.828,0c0.781,0.781,0.781,2.047,0,2.828l-35,35C143.607,126.388,143.095,126.583,142.583,126.583z
	 M23.167,99c-0.512,0-1.024-0.195-1.414-0.586c-0.781-0.781-0.781-2.047,0-2.828l43.917-43.917c0.78-0.781,2.048-0.781,2.828,0
	c0.781,0.781,0.781,2.047,0,2.828L24.581,98.414C24.191,98.804,23.679,99,23.167,99z M23.583,69.583
	c-0.512,0-1.024-0.195-1.414-0.586c-0.781-0.781-0.781-2.047,0-2.828l14.5-14.5c0.78-0.781,2.048-0.781,2.828,0
	c0.781,0.781,0.781,2.047,0,2.828l-14.5,14.5C24.607,69.388,24.095,69.583,23.583,69.583z"/>
<g>
</g>
<g>
</g>
<g>
</g>
<g>
</g>
<g>
</g>
<g>
</g>
<g>
</g>
<g>
</g>
<g>
</g>
<g>
</g>
<g>
</g>
<g>
</g>
<g>
</g>
<g>
</g>
<g>
</g>
</svg>
